<svg version="1.1" id="Capa_1" xmlns="http://www.w3.org/2000/svg" xmlns:xlink="http://www.w3.org/1999/xlink" x="0px" y="0px"
	 width="398.679px" height="112.197px" viewBox="0 0 398.679 112.197" enable-background="new 0 0 398.679 112.197"
	 xml:space="preserve">
<g>
	<path fill-rule="evenodd" clip-rule="evenodd" fill="#223D71" d="M114.964,2.907v23.787c0,12.163,5.626,17.563,15.292,17.563
		c10.003,0,15.971-5.627,15.971-17.451V2.907h-8.638v24.415c0,6.818-2.503,10.003-7.051,10.003c-4.375,0-6.933-3.353-6.933-10.003
		V2.907"/>
	<path fill-rule="evenodd" clip-rule="evenodd" fill="#223D71" d="M151.862,43.632h8.64V27.606c0-0.799,0.059-1.591,0.287-2.162
		c0.622-1.593,2.041-3.237,4.432-3.237c3.125,0,4.376,2.442,4.376,6.022v15.403h8.64V27.208c0-8.187-4.264-11.995-9.946-11.995
		c-4.66,0-7.448,2.673-8.582,4.491h-0.172l-0.4-3.863h-7.5c0.114,2.499,0.227,5.398,0.227,8.865"/>
	<path fill-rule="evenodd" clip-rule="evenodd" fill="#223D71" d="M187.966,2.907c-2.785,0-4.605,1.875-4.605,4.319
		c0,2.387,1.762,4.32,4.491,4.32c2.898,0,4.661-1.934,4.661-4.32C192.454,4.781,190.75,2.907,187.966,2.907"/>
	<rect x="183.587" y="15.839" fill="#223D71" width="8.641" height="27.793"/>
	<path fill-rule="evenodd" clip-rule="evenodd" fill="#223D71" d="M194.624,15.839l10.116,27.793h8.639l10.346-27.793h-9.096
		l-3.581,12.9c-0.627,2.387-1.08,4.49-1.533,6.765h-0.17c-0.457-2.215-0.913-4.377-1.596-6.765L204,15.839"/>
	<path fill-rule="evenodd" clip-rule="evenodd" fill="#223D71" d="M249.82,32.492c0.113-0.624,0.283-1.933,0.283-3.411
		c0-6.874-3.408-13.868-12.391-13.868c-9.659,0-14.04,7.787-14.04,14.838c0,8.696,5.404,14.149,14.837,14.149
		c3.754,0,7.219-0.565,10.059-1.762l-1.135-5.853c-2.33,0.794-4.718,1.195-7.674,1.195c-4.036,0-7.615-1.708-7.841-5.289
		 M231.859,26.58c0.226-2.272,1.707-5.626,5.342-5.626c3.98,0,4.889,3.523,4.889,5.626H231.859z"/>
	<path fill-rule="evenodd" clip-rule="evenodd" fill="#223D71" d="M253.696,43.632h8.64V29.536c0-0.682,0.059-1.365,0.169-1.93
		c0.571-2.672,2.73-4.381,5.912-4.381c0.964,0,1.647,0.117,2.33,0.229v-8.127c-0.624-0.114-1.023-0.17-1.819-0.17
		c-2.728,0-6.082,1.706-7.501,5.797h-0.23l-0.34-5.113h-7.39c0.173,2.385,0.229,5.057,0.229,9.147"/>
	<path fill-rule="evenodd" clip-rule="evenodd" fill="#223D71" d="M272.121,42.268c2.101,1.14,5.339,1.99,8.979,1.99
		c7.958,0,11.993-3.806,11.993-9.038c-0.057-4.032-2.213-6.763-7.502-8.583c-3.41-1.194-4.491-1.875-4.491-3.241
		c0-1.365,1.194-2.216,3.295-2.216c2.335,0,4.776,0.91,6.027,1.593l1.479-5.967c-1.709-0.853-4.547-1.649-7.788-1.649
		c-6.877,0-11.308,3.922-11.308,9.152c-0.062,3.298,2.157,6.422,7.954,8.354c3.18,1.08,4.033,1.762,4.033,3.243
		c0,1.42-1.078,2.273-3.693,2.273c-2.558,0-5.855-1.084-7.445-2.047"/>
	<path fill-rule="evenodd" clip-rule="evenodd" fill="#223D71" d="M301.172,2.907c-2.785,0-4.604,1.875-4.604,4.319
		c0,2.387,1.764,4.32,4.492,4.32c2.899,0,4.66-1.934,4.66-4.32C305.663,4.781,303.959,2.907,301.172,2.907"/>
	<rect x="296.797" y="15.839" fill="#223D71" width="8.637" height="27.793"/>
	<path fill-rule="evenodd" clip-rule="evenodd" fill="#223D71" d="M329.087,3.219v15.064h-0.113
		c-1.251-1.879-3.863-3.129-7.33-3.129c-6.653,0-12.507,5.458-12.449,14.835c0,8.641,5.286,14.268,11.879,14.268
		c3.583,0,6.993-1.591,8.698-4.664h0.168l0.345,4.039h7.672c-0.114-1.878-0.229-5.171-0.229-8.298V3.219 M329.087,31.24
		c0,0.683-0.058,1.365-0.17,1.99c-0.513,2.443-2.558,4.148-5.06,4.148c-3.579,0-5.911-2.956-5.911-7.672
		c0-4.378,1.99-7.901,5.97-7.901c2.669,0,4.547,1.931,5.058,4.208c0.113,0.508,0.113,1.136,0.113,1.591V31.24z"/>
	<path fill-rule="evenodd" clip-rule="evenodd" fill="#223D71" d="M366.211,27.206c0-6.596-2.896-12.052-12.161-12.052
		c-5.059,0-8.865,1.422-10.804,2.502l1.596,5.57c1.817-1.137,4.832-2.103,7.673-2.103c4.263,0,5.058,2.103,5.058,3.636v0.343
		c-9.834,0-16.313,3.409-16.313,10.628c0,4.433,3.356,8.524,8.983,8.524c3.296,0,6.135-1.19,7.957-3.406h0.168l0.515,2.783h7.785
		c-0.344-1.535-0.456-4.093-0.456-6.708 M357.858,33.515c0,0.509-0.056,1.022-0.169,1.478c-0.569,1.763-2.389,3.185-4.493,3.185
		c-1.931,0-3.407-1.084-3.407-3.3c0-3.294,3.522-4.375,8.069-4.375V33.515z"/>
	<g>
		<path fill-rule="evenodd" clip-rule="evenodd" fill="#223D71" d="M389.809,3.219v15.064h-0.114
			c-1.25-1.879-3.862-3.129-7.332-3.129c-6.649,0-12.503,5.458-12.446,14.835c0,8.641,5.288,14.268,11.88,14.268
			c3.582,0,6.991-1.591,8.695-4.664h0.17l0.345,4.039h7.673c-0.116-1.878-0.228-5.171-0.228-8.298V3.219 M389.809,31.24
			c0,0.683-0.054,1.365-0.168,1.99c-0.514,2.443-2.561,4.148-5.062,4.148c-3.582,0-5.907-2.956-5.907-7.672
			c0-4.378,1.988-7.901,5.968-7.901c2.671,0,4.544,1.931,5.055,4.208c0.114,0.508,0.114,1.136,0.114,1.591V31.24z"/>
	</g>
	<path fill-rule="evenodd" clip-rule="evenodd" fill="#1A171B" d="M157.667,76.846c0,0.357-0.045,0.805-0.177,1.251
		c-0.621,1.826-2.449,3.614-5.308,3.614c-1.96,0-3.657-1.161-3.657-3.751c0-4.189,4.859-4.951,9.142-4.858V76.846 M161.459,70.869
		c0-4.281-1.603-8.786-8.207-8.786c-2.719,0-5.351,0.759-7.136,1.873l0.895,2.632c1.514-1.027,3.61-1.605,5.662-1.605
		c4.412-0.046,4.911,3.211,4.911,4.952v0.443c-8.345-0.041-12.98,2.813-12.98,8.029c0,3.118,2.229,6.204,6.596,6.204
		c3.08,0,5.399-1.518,6.604-3.214h0.134l0.311,2.721h3.523c-0.22-1.474-0.312-3.301-0.312-5.179V70.869z"/>
	<path fill="#1A171B" d="M169.034,84.118h3.923V72.606c0-0.623,0.047-1.294,0.137-1.828c0.536-2.944,2.498-4.991,5.264-4.991
		c0.537,0,0.935,0,1.34,0.088v-3.702c-0.359-0.043-0.674-0.091-1.072-0.091c-2.633,0-5.04,1.834-6.02,4.73h-0.14l-0.178-4.28h-3.434
		c0.139,2.006,0.18,4.19,0.18,6.728V84.118"/>
	<path fill-rule="evenodd" clip-rule="evenodd" fill="#1A171B" d="M196.008,76.846c0,0.357-0.044,0.805-0.178,1.251
		c-0.623,1.826-2.445,3.614-5.308,3.614c-1.962,0-3.655-1.161-3.655-3.751c0-4.189,4.859-4.951,9.141-4.858V76.846 M199.8,70.869
		c0-4.281-1.602-8.786-8.205-8.786c-2.722,0-5.354,0.759-7.136,1.873l0.894,2.632c1.515-1.027,3.611-1.605,5.663-1.605
		c4.419-0.046,4.908,3.211,4.908,4.952v0.443c-8.342-0.041-12.979,2.813-12.979,8.029c0,3.118,2.229,6.204,6.599,6.204
		c3.077,0,5.399-1.518,6.601-3.214h0.136l0.312,2.721h3.525c-0.226-1.474-0.317-3.301-0.317-5.179V70.869z"/>
	<path fill-rule="evenodd" clip-rule="evenodd" fill="#1A171B" d="M221.916,74.93c0,0.666-0.09,1.427-0.312,2.094
		c-0.804,2.496-2.989,4.018-5.441,4.018c-4.192,0-6.375-3.526-6.375-7.766c0-4.992,2.673-8.163,6.419-8.163
		c2.903,0,4.771,1.877,5.489,4.195c0.175,0.493,0.22,1.069,0.22,1.739V74.93 M225.844,68.416c0-2.586,0.044-4.366,0.173-5.886
		h-3.479l-0.133,3.257h-0.085c-0.982-1.787-2.99-3.705-6.736-3.705c-4.998,0-9.771,4.105-9.771,11.414
		c0,5.979,3.834,10.532,9.192,10.532c3.339,0,5.703-1.605,6.864-3.61h0.096v2.364c0,5.484-2.948,7.582-6.96,7.582
		c-2.679,0-4.913-0.807-6.337-1.742l-0.98,3.035c1.737,1.16,4.592,1.779,7.18,1.779c2.721,0,5.76-0.666,7.896-2.588
		c2.05-1.914,3.08-4.903,3.08-9.899V68.416z"/>
	<path fill-rule="evenodd" clip-rule="evenodd" fill="#1A171B" d="M242.603,65.029c4.638,0,6.468,4.594,6.468,8.248
		c0,4.864-2.809,8.387-6.559,8.387c-3.83,0-6.511-3.564-6.511-8.295C236.001,69.308,238.011,65.029,242.603,65.029 M242.699,62.083
		c-5.938,0-10.711,4.236-10.711,11.413c0,6.827,4.554,11.113,10.349,11.113c5.173,0,10.749-3.479,10.749-11.465
		C253.085,66.587,248.89,62.083,242.699,62.083"/>
	<path fill="#1A171B" d="M256.512,84.118h17.485v-3.121h-12.578v-0.092c0.982-1.066,1.828-2.187,2.763-3.388l8.396-12.535v-2.45
		h-16.414v3.122h11.684v0.083c-0.984,1.158-0.629,2.188-1.612,3.392l-9.723,12.716V84.118"/>
	<path fill-rule="evenodd" clip-rule="evenodd" fill="#1A171B" d="M290.672,76.846c0,0.357-0.05,0.805-0.182,1.251
		c-0.622,1.826-2.454,3.614-5.307,3.614c-1.966,0-3.657-1.161-3.657-3.751c0-4.189,4.859-4.951,9.146-4.858V76.846 M294.459,70.869
		c0-4.281-1.603-8.786-8.202-8.786c-2.722,0-5.358,0.759-7.144,1.873l0.894,2.632c1.52-1.027,3.618-1.605,5.669-1.605
		c4.415-0.046,4.904,3.211,4.904,4.952v0.443c-8.343-0.041-12.975,2.813-12.975,8.029c0,3.118,2.226,6.204,6.6,6.204
		c3.071,0,5.395-1.518,6.595-3.214h0.138l0.313,2.721h3.523c-0.224-1.474-0.314-3.301-0.314-5.179V70.869z"/>
	<polyline fill="#1A171B" points="116.195,84.118 140.718,84.118 140.718,80.858 121.323,80.858 121.323,80.725 140.568,56.422
		140.568,54.056 116.19,54.056 116.19,57.309 135.477,57.309 135.477,57.442 116.195,81.844 	"/>
	<polyline fill-rule="evenodd" clip-rule="evenodd" fill="#4E648D" points="19.425,112.039 21.521,112.039 21.521,102.793
		19.741,102.793 17.279,103.93 17.631,105.553 19.396,104.711 19.425,104.711 	"/>
	<path fill-rule="evenodd" clip-rule="evenodd" fill="#4E648D" d="M34.153,102.793h-5.092l-0.599,4.836
		c0.37-0.057,0.723-0.082,1.239-0.082c1.848,0,2.602,0.58,2.602,1.549c0,0.979-0.952,1.41-1.851,1.41
		c-0.841,0-1.677-0.26-2.074-0.455l-0.396,1.617c0.509,0.273,1.445,0.529,2.57,0.529c2.491,0,3.968-1.52,3.968-3.244
		c0-1.096-0.426-1.863-1.12-2.334c-0.645-0.467-1.554-0.668-2.437-0.668c-0.228,0-0.397,0.014-0.594,0.029l0.197-1.41h3.586"/>
	<path fill-rule="evenodd" clip-rule="evenodd" fill="#4E648D" d="M45.165,112.039v-2.209h1.098v-1.621h-1.098v-5.416h-2.659
		l-3.488,5.635v1.402h4.102v2.209 M41.025,108.209l0.013-0.023l1.225-2.021c0.313-0.582,0.572-1.123,0.872-1.723h0.035
		c-0.025,0.6-0.049,1.168-0.049,1.723v2.045H41.025z"/>
	<path fill-rule="evenodd" clip-rule="evenodd" fill="#4E648D" d="M57.175,112.039v-1.779h-3.502v-0.029l0.854-0.709
		c1.356-1.197,2.461-2.432,2.461-3.98c0-1.689-1.135-2.904-3.242-2.904c-1.238,0-2.332,0.424-3.016,0.949l0.614,1.537
		c0.482-0.357,1.174-0.754,1.977-0.754c1.066,0,1.506,0.6,1.506,1.352c-0.014,1.084-0.996,2.121-3.031,3.941l-1.179,1.07v1.307"/>
	<path fill="#223D71" d="M42.111,42.812c0.492,0,0.893-0.399,0.893-0.891c0-0.493-0.4-0.894-0.893-0.894
		c-0.494,0-0.892,0.401-0.892,0.894C41.219,42.413,41.618,42.812,42.111,42.812 M43.022,42.755c0,0.493,0.401,0.893,0.893,0.893
		c0.494,0,0.893-0.399,0.893-0.893c0-0.493-0.399-0.894-0.893-0.894C43.423,41.861,43.022,42.263,43.022,42.755 M40.37,40.015
		c-0.494,0-0.894,0.399-0.894,0.892c0,0.494,0.399,0.893,0.894,0.893c0.491,0,0.893-0.399,0.893-0.893
		C41.262,40.415,40.861,40.015,40.37,40.015 M44.979,43.457c0,0.324,0.263,0.587,0.587,0.587c0.323,0,0.583-0.263,0.583-0.587
		c0-0.321-0.261-0.585-0.583-0.585C45.242,42.872,44.979,43.135,44.979,43.457 M48.558,18.8v-4.438c0-1.379-1.113-2.487-2.49-2.487
		c-1.379,0-2.487,1.107-2.487,2.487V18.8c0,0.295,0.222,0.446,0.447,0.446h4.081C48.334,19.246,48.558,19.095,48.558,18.8
		 M36.949,40.214c0,0.683,0.555,1.239,1.238,1.239c0.684,0,1.237-0.556,1.237-1.239c0-0.685-0.553-1.239-1.237-1.239
		C37.504,38.975,36.949,39.529,36.949,40.214 M34.236,41.027c-0.492,0-0.893,0.401-0.893,0.894c0,0.492,0.4,0.891,0.893,0.891
		c0.494,0,0.894-0.399,0.894-0.891C35.129,41.429,34.73,41.027,34.236,41.027 M35.999,41.8c0.494,0,0.892-0.399,0.892-0.893
		c0-0.493-0.398-0.892-0.892-0.892s-0.893,0.399-0.893,0.892C35.106,41.401,35.505,41.8,35.999,41.8 M33.331,31.567v8.658
		l4.888-2.307l5.137,2.506v-8.857c0-2.777-2.24-5.011-5.015-5.011C35.563,26.556,33.331,28.79,33.331,31.567 M33.32,14.361
		c0-1.379-1.112-2.487-2.49-2.487s-2.487,1.107-2.487,2.487V18.8c0,0.295,0.224,0.446,0.447,0.446h4.082
		c0.224,0,0.448-0.15,0.448-0.446V14.361z M71.614,7.055l4.155-4.153H1.672l2.632,4.153H71.614z M65.728,1.861L69.207,0H7.198
		L9.4,1.861H65.728z M32.418,41.861c-0.492,0-0.892,0.401-0.892,0.894c0,0.493,0.399,0.893,0.892,0.893
		c0.493,0,0.892-0.399,0.892-0.893C33.311,42.263,32.911,41.861,32.418,41.861 M51.413,31.567v8.938
		c0,0.597,0.448,0.901,0.899,0.901h8.222c0.453,0,0.904-0.304,0.904-0.901v-8.938c0-2.777-2.242-5.011-5.017-5.011
		C53.647,26.556,51.413,28.79,51.413,31.567 M40.352,19.246c0.225,0,0.448-0.15,0.448-0.446v-4.438c0-1.379-1.11-2.487-2.489-2.487
		c-1.378,0-2.487,1.107-2.487,2.487V18.8c0,0.295,0.223,0.446,0.447,0.446H40.352z M30.309,43.457c0,0.324,0.262,0.587,0.585,0.587
		c0.324,0,0.586-0.263,0.586-0.587c0-0.321-0.262-0.585-0.586-0.585C30.571,42.872,30.309,43.135,30.309,43.457 M51.31,49.184
		l-13.091-7.073l-13.3,6.967L51.31,49.184z M36.852,44.2h2.683c0.146,0,0.292,0.1,0.292,0.295v2.104
		c0,0.906-0.728,1.636-1.633,1.636c-0.904,0-1.636-0.729-1.636-1.636v-2.104C36.558,44.299,36.703,44.2,36.852,44.2 M0,93.279
		h76.541v-4.637H0V93.279z M24.886,54.352c0-0.728-0.589-1.316-1.317-1.316c-0.727,0-1.317,0.589-1.317,1.316
		c0,0.729,0.591,1.318,1.317,1.318C24.296,55.67,24.886,55.082,24.886,54.352 M14.907,31.567v8.938c0,0.597,0.45,0.901,0.902,0.901
		h8.222c0.451,0,0.902-0.304,0.902-0.901v-8.938c0-2.777-2.239-5.011-5.015-5.011C17.141,26.556,14.907,28.79,14.907,31.567
		 M23.212,11.875c-1.378,0-2.488,1.107-2.488,2.487V18.8c0,0.295,0.224,0.446,0.447,0.446h4.082c0.224,0,0.447-0.15,0.447-0.446
		v-4.438C25.701,12.982,24.589,11.875,23.212,11.875 M17.578,54.352c0-0.728-0.589-1.316-1.317-1.316
		c-0.726,0-1.316,0.589-1.316,1.316c0,0.729,0.59,1.318,1.316,1.318C16.989,55.67,17.578,55.082,17.578,54.352 M15.731,11.875
		c-1.378,0-2.487,1.107-2.487,2.487V18.8c0,0.295,0.224,0.446,0.447,0.446h4.081c0.227,0,0.45-0.15,0.45-0.446v-4.438
		C18.223,12.982,17.111,11.875,15.731,11.875 M14.907,77.641c0,0.596,0.45,0.899,0.902,0.899h8.222c0.451,0,0.902-0.304,0.902-0.899
		V62.458c0-2.776-2.239-5.01-5.015-5.01c-2.777,0-5.012,2.233-5.012,5.01V77.641z M5.034,87.064h66.474v-3.71H5.034V87.064z
		 M63.484,19.246c0.225,0,0.449-0.15,0.449-0.446v-4.438c0-1.379-1.113-2.487-2.49-2.487c-1.379,0-2.487,1.107-2.487,2.487V18.8
		c0,0.295,0.222,0.446,0.446,0.446H63.484z M9.952,81.914h56.636v-2.435H9.952V81.914z M52.602,55.67
		c0.728,0,1.317-0.589,1.317-1.318c0-0.728-0.589-1.316-1.317-1.316c-0.727,0-1.317,0.589-1.317,1.316
		C51.284,55.082,51.875,55.67,52.602,55.67 M61.227,54.352c0-0.728-0.589-1.316-1.319-1.316c-0.726,0-1.315,0.589-1.315,1.316
		c0,0.729,0.59,1.318,1.315,1.318C60.637,55.67,61.227,55.082,61.227,54.352 M52.272,78.436h8.222c0.451,0,0.903-0.304,0.903-0.901
		V61.947c0-2.777-2.239-5.013-5.015-5.013c-2.777,0-5.012,2.235-5.012,5.013v15.588C51.37,78.132,51.82,78.436,52.272,78.436
		 M53.548,11.875c-1.378,0-2.487,1.107-2.487,2.487V18.8c0,0.295,0.223,0.446,0.446,0.446h4.082c0.224,0,0.447-0.15,0.447-0.446
		v-4.438C56.036,12.982,54.924,11.875,53.548,11.875 M32.238,78.541h11.539c0.635,0,1.268-0.426,1.268-1.266V61.164
		c0-3.898-3.145-7.03-7.039-7.03c-3.896,0-7.03,3.132-7.03,7.03v16.111C30.976,78.115,31.605,78.541,32.238,78.541 M32.108,53.433
		c0.729,0,1.316-0.589,1.316-1.319c0-0.726-0.587-1.314-1.316-1.314c-0.728,0-1.317,0.589-1.317,1.314
		C30.791,52.844,31.38,53.433,32.108,53.433 M44.87,52.114c0-0.726-0.59-1.314-1.318-1.314c-0.727,0-1.316,0.589-1.316,1.314
		c0,0.73,0.589,1.319,1.316,1.319C44.28,53.433,44.87,52.844,44.87,52.114"/>
</g>
</svg>
